inDegrees=no
num_controls=7
num_derivatives=13
num_iterations=167
num_multipliers=7
num_parameters=0
num_slacks=7
num_states=26
objective=0.546512
objective_accelerations=0.057367
objective_balance=0.004885
objective_effort=0.045687
objective_height=0.428733
objective_ligament=0.009840
solver_duration=1830.113128
status=Solve_Succeeded
success=true
DataType=double
version=3
OpenSimVersion=4.5
endheader
time	/jointset/ground_pelvis/pelvis_tilt/value	/jointset/ground_pelvis/pelvis_tx/value	/jointset/ground_pelvis/pelvis_ty/value	/jointset/hip_r/hip_flexion_r/value	/jointset/hip_r/hip_adduction_r/value	/jointset/hip_r/hip_rotation_r/value	/jointset/back/lumbar_extension/value	/jointset/patellofemoral_r/patellar_flexion_r/value	/jointset/knee_r/knee_flexion_r/value	/jointset/knee_r/knee_adduction_r/value	/jointset/knee_r/knee_rotation_r/value	/jointset/ankle_r/ankle_angle_r/value	/jointset/subtalar_r/subtalar_angle_r/value	/jointset/ground_pelvis/pelvis_tilt/speed	/jointset/ground_pelvis/pelvis_tx/speed	/jointset/ground_pelvis/pelvis_ty/speed	/jointset/hip_r/hip_flexion_r/speed	/jointset/hip_r/hip_adduction_r/speed	/jointset/hip_r/hip_rotation_r/speed	/jointset/back/lumbar_extension/speed	/jointset/patellofemoral_r/patellar_flexion_r/speed	/jointset/knee_r/knee_flexion_r/speed	/jointset/knee_r/knee_adduction_r/speed	/jointset/knee_r/knee_rotation_r/speed	/jointset/ankle_r/ankle_angle_r/speed	/jointset/subtalar_r/subtalar_angle_r/speed	/forceset/tau_hip_flexion_r	/forceset/tau_hip_adduction_r	/forceset/tau_hip_rotation_r	/forceset/tau_knee_flexion_r	/forceset/tau_ankle_angle_r	/forceset/tau_subtalar_angle_r	/forceset/tau_lumbar_extension	lambda_cid13_p0	lambda_cid14_p0	lambda_cid14_p1	lambda_cid14_p2	lambda_cid14_p3	lambda_cid14_p4	lambda_cid14_p5	/jointset/ground_pelvis/pelvis_tilt/accel	/jointset/ground_pelvis/pelvis_tx/accel	/jointset/ground_pelvis/pelvis_ty/accel	/jointset/hip_r/hip_flexion_r/accel	/jointset/hip_r/hip_adduction_r/accel	/jointset/hip_r/hip_rotation_r/accel	/jointset/back/lumbar_extension/accel	/jointset/patellofemoral_r/patellar_flexion_r/accel	/jointset/knee_r/knee_flexion_r/accel	/jointset/knee_r/knee_adduction_r/accel	/jointset/knee_r/knee_rotation_r/accel	/jointset/ankle_r/ankle_angle_r/accel	/jointset/subtalar_r/subtalar_angle_r/accel	gamma_cid13_p0	gamma_cid14_p0	gamma_cid14_p1	gamma_cid14_p2	gamma_cid14_p3	gamma_cid14_p4	gamma_cid14_p5
0	-0.006515413291039157	0.09626031094234222	0.9427240697510314	0.1762555222360518	-0.232152733136783	-0.2616406620149138	-0.038598046466844	0.07317863873451087	0.07317863873451017	0.1745328369009335	0.1745329251994329	0.03247278518263602	-0.003452022667849702	0	0	0	0	0	0	0	0	0	0	0	0	0	0.235688154401225	-0.1640722951193497	-0.04542509001605237	-0.414047365095119	0.4066595552133185	-0.1480945392686018	-0.1316456347693594	-39.07620768611969	80.79787059889426	-40.33782674108317	-4.340170114929271	-31.07144126325521	-675.0826813591076	56.58242728101632	-2.512831411075906	-1.350048781204506	-0.7428377200803391	10.6620142026624	-0.06309272786400329	2.91174398964142	-5.308688474895395	10.83207945289972	10.83207945290025	-2.789770941135207	0.237807225530435	3.499535553999378	0.7109315148971728	9.976672420616343e-08	3.36288047969104e-08	-7.646044614025105e-07	1.888919884159696e-07	4.482479437559713e-08	2.591552558197418e-08	-3.436311567327295e-07
0.01	-0.00663343762228106	0.09619481132964888	0.9426883390571794	0.1767704466897861	-0.2321545063662891	-0.2614857866340731	-0.03886614625841926	0.07370478102098287	0.07370478102098646	0.1743936525805093	0.1745311913660358	0.03264459697913988	-0.003415857982975343	-0.0235349837033665	-0.01293574655214094	-0.00712793547806688	0.1024349006085516	-0.0003829968010681277	0.03084640107543577	-0.05318754466890194	0.1047679817654978	0.104767981765499	-0.02763454789105083	-0.0003572303384467022	0.03433308522974319	0.0071979652153535	0.2332703511786639	-0.1757403207121896	-0.04514895797814358	-0.4145468738742618	0.4072924128784067	-0.1371808366286779	-0.1290306849715736	-39.09390964258657	81.43943586077857	-35.55974224210703	-5.017322673045902	-33.04628892227558	-675.7377848784212	66.01029860896521	-2.263348143536289	-1.240702229193805	-0.6950357847187081	9.951730585295051	-0.0302415468543789	3.151838146635589	-5.258925416037797	10.23006625562813	10.23006625562801	-2.720051387978144	-0.1739721723697543	3.395819784314245	0.7188849175948516	1.446696516861636e-07	2.414963898254701e-08	-1.108649993350221e-06	1.985984557131831e-07	9.468705864401437e-08	-2.109066911444758e-07	-4.530166367723797e-07
0.02	-0.006984715049268631	0.09600488132403921	0.9425818761439371	0.1782932206686756	-0.2321609772419304	-0.2610262972464478	-0.03965314908731294	0.07526478486856564	0.07526478486856585	0.1739841718461783	0.174525587649653	0.03315886458331232	-0.003308782467399347	-0.04665061914950806	-0.02488607858326125	-0.0141464438780825	0.2015699050308452	-0.0009395292271807582	0.06092280135650911	-0.1037806074638165	0.2067723122211291	0.2067723122211293	-0.05405928277762582	-0.0007738210303933511	0.06849116153358525	0.01418216614032341	0.2308525479560946	-0.1874083463050353	-0.04487282594028677	-0.4150463826534048	0.4079252705434895	-0.1262671339887608	-0.1264157351737884	-39.14611854019031	82.17588048902122	-30.78694619233586	-5.668613871908784	-35.22642468622937	-674.943256140305	75.18993795024132	-2.428961759630952	-1.152965877000351	-0.7209523044700876	10.00203496541081	-0.09779985287290427	2.757743830768905	-4.789792100097944	10.27934919092643	10.27934919092648	-2.547808340240039	0.2259351548304761	3.464533768819191	0.6681786568204635	1.895725791661638e-07	1.467047316818362e-08	-1.452695525297931e-06	2.083049230103965e-07	1.445493229124316e-07	-4.477289078709258e-07	-5.624021168120298e-07
0.03	-0.007565136082462716	0.09569896421535347	0.9424053803048017	0.1807928318820813	-0.2321743249251175	-0.2602724238454375	-0.04093364929321163	0.07783191768597686	0.07783191768597501	0.1733176932362498	0.1745179511700115	0.03401209848233622	-0.003133772410223968	-0.06931396415999204	-0.03627185682388545	-0.02116269933261207	0.2979086143728309	-0.001781319531893852	0.08969618663845713	-0.1520003474709114	0.3061912350583623	0.3061912350583763	-0.07895593512809757	-0.0007654718790624274	0.1019389644837882	0.02071745723181975	0.2233414211219386	-0.1924096193505047	-0.04273651964310451	-0.4054398115645567	0.3917584398910604	-0.1152769658816745	-0.1206286236286531	-39.23128208562285	77.46413110154893	-26.92094800457904	-6.191252503241386	-32.36932618727172	-673.9661187776123	81.70855018673115	-2.167063835330929	-1.12753173668544	-0.6935489761265032	9.38323438289903	-0.08524020299683797	2.913853147812235	-4.79020201432162	9.703673303831236	9.703673303833195	-2.418728014160273	-0.113422523729587	3.2524376672011	0.6306411929221092	2.090990560331275e-07	7.93517964850185e-09	-1.598166383041038e-06	2.119833839568842e-07	1.690064295162208e-07	-5.976616908924082e-07	-6.136289013069587e-07
